# xmcd
#
# Track frame offsets: 
#        150
#        31445
#        53457
#        77455
#        103645
#        122282
#        144145
#        167572
#        194542
#        216050
#        239752
#
# Disc length: 3420 seconds
#
# Revision: 1
# Processed by: cddbd v1.5.2PL0 Copyright (c) Steve Scherf et al.
# Submitted via: ExactAudioCopy v0.90b4
#
DISCID=870d5a0b
DTITLE=Various Artist - Playboy's Latin Jazz Christmas
DYEAR=2001
DGENRE=Jazz
TTITLE0=Arturo Sandoval - Jingle Bells
TTITLE1=Caribbean Jazz Project - Sleigh Ride
TTITLE2=Poncho Sanchez - What Child Is This
TTITLE3=Arturo Sandoval - Santa Claus Is Comming To Town
TTITLE4=Sheila E. - Santa Baby
TTITLE5=Caribbean Jazz Project - Angels We Have Heartd on High
TTITLE6=Ed Calle, Dan Warner - White Christmas
TTITLE7=Caribbean Jazz Project - Silent Night
TTITLE8=Poncho Sanchez - Have Yourself a Merry Little Christmas
TTITLE9=Ed Calle, Justo Almario - God Rest Ye Merry Gentlemen
TTITLE10=Pete Escovedo, Ray Obiedo - Feliz Navidad
EXTD=YEAR: 2001
EXTT0=
EXTT1=
EXTT2=
EXTT3=
EXTT4=
EXTT5=
EXTT6=
EXTT7=
EXTT8=
EXTT9=
EXTT10=
PLAYORDER=
